<?xml version="1.0" standalone="no"?>
<!DOCTYPE svg PUBLIC "-//W3C//DTD SVG 20010904//EN"
 "http://www.w3.org/TR/2001/REC-SVG-20010904/DTD/svg10.dtd">
<svg version="1.0" xmlns="http://www.w3.org/2000/svg"
 width="2709.000000pt" height="435.000000pt" viewBox="0 0 2709.000000 435.000000"
 preserveAspectRatio="xMidYMid meet">
<metadata>
Created by potrace 1.16, written by Peter Selinger 2001-2019
</metadata>
<g transform="translate(0.000000,435.000000) scale(0.100000,-0.100000)"
fill="#000000" stroke="none">
<path d="M1930 4249 c-110 -13 -243 -53 -345 -104 -84 -42 -205 -122 -205
-136 0 -4 19 -14 43 -23 177 -67 402 -277 495 -462 29 -57 603 -1386 600
-1388 -2 -1 -55 -24 -118 -50 -728 -309 -1370 -826 -1895 -1526 -26 -36 -52
-69 -57 -75 -12 -13 -7 2 507 1375 246 657 449 1204 452 1215 3 15 1 14 -10
-5 -15 -26 -1257 -3054 -1257 -3064 0 -3 29 -6 64 -6 l65 0 85 125 c517 757
1193 1349 1914 1676 108 49 335 140 339 136 1 -1 133 -306 293 -677 162 -375
312 -708 337 -749 103 -165 246 -296 418 -381 348 -173 782 -137 1091 90 30
23 54 42 54 45 0 2 -37 22 -81 45 -188 94 -339 235 -435 407 -20 36 -179 394
-353 796 l-317 732 76 8 c109 12 553 1 705 -17 243 -30 502 -81 684 -137 l69
-20 307 -712 c169 -392 328 -752 353 -800 137 -262 388 -454 687 -523 118 -28
359 -26 475 3 149 38 309 114 400 191 l35 29 -90 46 c-50 24 -118 66 -152 91
-90 68 -211 202 -265 292 -26 43 -331 736 -678 1539 -380 880 -649 1489 -676
1532 -106 170 -239 290 -419 378 -128 63 -217 89 -354 105 -249 29 -552 -52
-735 -196 l-59 -47 71 -33 c100 -46 206 -121 290 -206 87 -88 132 -149 182
-248 55 -109 473 -1080 467 -1086 -2 -2 -69 7 -149 20 -337 58 -724 79 -1058
56 -107 -8 -213 -14 -234 -14 l-40 -1 -251 580 c-138 319 -264 605 -280 635
-149 291 -452 496 -798 540 -92 11 -139 11 -247 -1z"/>
<path d="M18540 4149 c-232 -27 -442 -135 -574 -296 -143 -173 -205 -406 -206
-775 l0 -108 -190 0 -190 0 0 -270 0 -270 190 0 190 0 0 -1090 0 -1090 350 0
350 0 0 1090 0 1090 255 0 255 0 0 270 0 270 -255 0 -255 0 0 135 c0 148 11
217 46 286 64 128 221 186 436 161 56 -7 103 -11 105 -9 2 2 6 130 10 284 l6
281 -54 11 c-179 39 -314 48 -469 30z"/>
<path d="M22080 2180 l0 -1930 350 0 350 0 0 1930 0 1930 -350 0 -350 0 0
-1930z"/>
<path d="M23563 4021 c-130 -45 -210 -142 -235 -289 -22 -130 16 -256 102
-342 58 -58 122 -88 219 -102 190 -28 360 61 423 221 28 71 30 231 5 300 -39
101 -129 186 -231 216 -70 21 -217 19 -283 -4z"/>
<path d="M8280 2080 l0 -1830 360 0 360 0 0 640 0 640 368 0 c564 0 736 28
1000 164 392 203 598 621 552 1122 -27 305 -126 528 -320 724 -175 178 -353
273 -614 329 -156 34 -332 41 -1033 41 l-673 0 0 -1830z m1515 1186 c207 -58
349 -214 390 -430 41 -211 -8 -420 -124 -536 -64 -64 -172 -117 -278 -135 -57
-10 -174 -14 -430 -15 l-353 0 0 571 0 571 368 -5 c304 -3 377 -7 427 -21z"/>
<path d="M16080 3305 l0 -335 -185 0 -185 0 0 -270 0 -270 185 0 184 0 3 -822
3 -823 27 -97 c69 -250 212 -399 448 -465 54 -15 100 -18 270 -17 183 1 215 4
300 25 l95 25 3 282 2 282 -57 -7 c-102 -14 -224 -9 -274 10 -54 20 -81 47
-106 102 -17 37 -18 93 -21 773 l-3 732 221 0 220 0 0 270 0 270 -220 0 -220
0 0 335 0 335 -345 0 -345 0 0 -335z"/>
<path d="M12261 3009 c-175 -20 -383 -99 -520 -196 -253 -180 -423 -468 -493
-838 -20 -105 -22 -151 -22 -370 1 -210 4 -268 22 -366 54 -295 170 -533 347
-714 162 -165 360 -268 599 -310 116 -20 365 -20 482 0 500 85 848 462 949
1025 22 127 31 444 16 591 -37 352 -146 619 -341 831 -244 266 -628 394 -1039
347z m372 -632 c248 -122 362 -463 316 -946 -21 -230 -79 -387 -181 -496 -105
-113 -250 -162 -407 -138 -226 35 -373 213 -428 517 -20 110 -22 410 -4 533
45 306 158 483 351 551 56 19 80 22 172 19 99 -3 112 -6 181 -40z"/>
<path d="M15183 3010 c-165 -30 -331 -152 -431 -318 l-20 -33 -7 155 -7 156
-329 0 -329 0 0 -1360 0 -1360 345 0 345 0 0 880 0 881 25 49 c52 102 159 181
295 216 73 19 228 24 358 11 l82 -8 0 234 c0 129 3 288 6 353 l7 120 -54 13
c-72 17 -221 22 -286 11z"/>
<path d="M20250 3009 c-556 -69 -930 -466 -1026 -1089 -22 -143 -22 -465 0
-620 44 -312 152 -555 331 -748 182 -195 396 -306 662 -342 146 -20 415 -9
534 23 207 54 346 133 495 282 291 287 409 662 383 1211 -12 251 -46 414 -127
601 -99 230 -289 441 -502 556 -84 46 -217 92 -322 112 -102 20 -327 27 -428
14z m313 -609 c198 -61 326 -260 368 -570 17 -124 6 -440 -19 -555 -50 -229
-135 -360 -282 -435 -177 -89 -395 -57 -531 79 -148 149 -205 361 -195 726 5
211 17 294 62 427 57 171 186 303 331 337 71 17 197 12 266 -9z"/>
<path d="M25556 3010 c-280 -35 -501 -141 -683 -328 -269 -274 -400 -716 -364
-1225 30 -423 152 -720 389 -949 226 -218 466 -308 822 -308 362 0 620 100
842 327 170 174 278 388 340 673 20 95 22 131 23 395 0 263 -2 300 -23 403
-59 291 -166 507 -340 685 -160 164 -356 268 -584 312 -99 19 -326 27 -422 15z
m306 -610 c193 -59 319 -247 363 -540 28 -182 14 -487 -30 -655 -40 -156 -144
-304 -253 -359 -246 -125 -524 -33 -645 214 -66 133 -88 247 -94 466 -8 285
19 467 93 621 61 127 184 235 300 262 71 17 197 12 266 -9z"/>
<path d="M23360 1610 l0 -1360 350 0 350 0 0 1360 0 1360 -350 0 -350 0 0
-1360z"/>
</g>
</svg>
